<svg height="288" preserveAspectRatio="xMidYMid" viewBox="0 0 256 288" width="256" xmlns="http://www.w3.org/2000/svg"><path d="m255.986979 84.5904965c-.002004-4.8378994-1.036693-9.1128797-3.12911-12.7818704-2.055356-3.607891-5.133381-6.6318286-9.262123-9.0227325-34.080647-19.6510865-68.194348-39.2420749-102.263978-58.91319416-9.184997-5.30265825-18.090538-5.1093426-27.207424.26943995-13.56515 8.00006261-81.4810436 46.91059621-101.7190885 58.63273621-8.3346089 4.8248782-12.39023097 12.208935-12.39223424 21.8066061-.01302126 39.5195283 0 79.0380543-.01302126 118.5585843 0 4.731726.99262076 8.92357 2.99288682 12.537471 2.05635765 3.717069 5.17745381 6.824143 9.40135068 9.269135 20.2390465 11.72214 88.1639555 50.629669 101.7260995 58.631734 9.120893 5.381788 18.026434 5.574102 27.214436.26944 34.070631-19.672121 68.186336-39.262107 102.271991-58.913194 4.223897-2.44399 7.344993-5.553067 9.401351-9.267131 1.997261-3.613901 2.991885-7.805746 2.991885-12.538473 0 0 0-79.018022-.013021-118.5385515" fill="#649ad2"/><path d="m128.391639 143.475645-125.39875218 72.201892c2.05635765 3.717069 5.17745381 6.824143 9.40135068 9.269135 20.2390465 11.72214 88.1639555 50.629669 101.7260995 58.631734 9.120893 5.381788 18.026434 5.574102 27.214436.26944 34.070631-19.672121 68.186336-39.262107 102.271991-58.913194 4.223897-2.44399 7.344993-5.553067 9.401351-9.267131z" fill="#004482"/><path d="m91.2499941 164.862566c7.2969145 12.7388 21.0143129 21.330829 36.7500059 21.330829 15.832852 0 29.628378-8.701207 36.888232-21.57623l-36.496593-21.14152z" fill="#1a4674"/><path d="m255.986979 84.5904965c-.002004-4.8378994-1.036693-9.1128797-3.12911-12.7818704l-124.46623 71.6670189 124.616476 72.191876c1.997261-3.613901 2.989882-7.805746 2.991885-12.538473 0 0 0-79.018022-.013021-118.5385515" fill="#01589c"/><path d="m249.13479 148.636071h-9.7379v9.739903h-9.739903v-9.739903h-9.736899v-9.736899h9.736899v-9.7379h9.739903v9.7379h9.7379zm-121.13479-89.7886081c31.134857 0 58.357629 16.7399985 73.169171 41.7082191l.445027.759122-37.001416 21.30679c-7.332974-12.608587-20.978254-21.093442-36.612782-21.093442-23.379174 0-42.3331221 18.952947-42.3331221 42.332121 0 7.645484 2.0383283 14.812185 5.5831162 21.002293 7.2969145 12.7388 21.0143129 21.330829 36.7500059 21.330829 15.658865 0 29.324933-8.511023 36.646534-21.153297l.241698-.422933 36.946326 21.405952c-14.648919 25.596795-42.22795 42.850968-73.834558 42.850968-31.5485128 0-59.0844739-17.18506-73.7544272-42.706733-7.1616937-12.459343-11.2593844-26.903929-11.2593844-42.307079 0-46.9506617 38.0611467-85.0128101 85.0138116-85.0128101zm75.864873 70.3138091v9.7379h9.736899v9.736899h-9.736899v9.739903h-9.7379v-9.739903h-9.7379v-9.736899h9.7379v-9.7379z" fill="#fff"/></svg>