<svg height="549" preserveAspectRatio="xMidYMid" viewBox="0 0 256 549" width="256" xmlns="http://www.w3.org/2000/svg"><path d="m175.621976 61.1079707c-23.010529-27.3012964-42.825329-55.0291523-46.873324-60.78803305-.426239-.42658353-1.065598-.42658353-1.491624 0-4.048208 5.75888075-23.862795 33.48673665-46.873537 60.78803305-197.50736 251.8964063 31.107158 421.8908433 31.107158 421.8908433l1.917437 1.279998c1.704318 26.233565 5.965646 63.987114 5.965646 63.987114h8.522441 8.522442s4.261328-37.540216 5.965859-63.987114l1.917437-1.493331c.212907.213333 228.828278-169.781104 31.320065-421.6775103zm-47.725803 418.0508483s-10.226759-8.744521-12.996675-13.222382v-.428799l12.35753-274.291683c0-.853332 1.278505-.853332 1.278505 0l12.357316 274.291683v.428799c-2.769703 4.477861-12.996676 13.222382-12.996676 13.222382z" fill="#01ec64"/></svg>